<svg width="589" height="588" viewBox="0 0 589 588" fill="none" xmlns="http://www.w3.org/2000/svg">
<path d="M412 260C412.671 260.187 413.342 260.373 414.034 260.566C432.405 265.686 449.663 279.737 463 293C463.503 293.498 464.005 293.997 464.523 294.511C481.875 311.957 499.236 337.87 501 363C501.66 363.33 502.32 363.66 503 364C503.488 366.373 503.837 368.642 504.105 371.043C504.189 371.76 504.273 372.477 504.36 373.215C505.196 380.913 505.355 388.576 505.312 396.312C505.31 397.03 505.308 397.748 505.306 398.487C505.1 441.447 488.365 479.466 461 512C460.083 513.125 459.167 514.25 458.25 515.375C442.932 533.246 423.084 547.055 403 559C402.062 559.562 402.062 559.562 401.105 560.135C368.58 579.345 331.197 587.224 293.812 587.25C292.473 587.251 292.473 587.251 291.107 587.252C277.197 587.235 263.691 586.644 250 584C249.06 583.823 248.12 583.646 247.151 583.463C201.013 574.591 158.551 555.055 124.492 522.428C123.118 521.113 121.733 519.81 120.348 518.507C108.881 507.458 100.244 495.125 93 481C92.2439 479.532 92.2439 479.532 91.4726 478.035C82.6732 459.821 79.3289 439.007 85.0429 419.425C87.4847 412.622 90.6418 406.752 95 401C95.7425 399.968 96.485 398.937 97.25 397.875C106.031 388.695 117.35 383.063 130 382C147.935 381.816 161.435 388.87 174.137 401.101C177.979 404.922 181.397 409.029 184.704 413.319C186.196 415.254 187.703 417.175 189.211 419.097C194.575 425.95 199.887 432.841 205.159 439.765C210.638 446.962 216.177 454.075 222 461C222.903 462.088 222.903 462.088 223.824 463.199C240.754 483.172 265.37 496.676 291.375 499.75C292.915 499.854 294.457 499.939 296 500C296.759 500.04 297.518 500.08 298.301 500.121C324.582 500.852 347.719 490.359 366.75 472.687C383.864 454.557 391.573 431.344 391.211 406.765C390.461 383.817 380.136 362.181 364 346C353.428 336.144 340.993 329.528 328.187 323.054C327.175 322.538 326.162 322.022 325.119 321.49C323.138 320.484 321.151 319.49 319.156 318.512C310.85 314.306 303.517 309.345 299 301C297.133 294.975 298.145 290.093 300.684 284.441C302.713 280.677 305 277.068 308 274C308.66 274 309.32 274 310 274C310 273.34 310 272.68 310 272C339.835 249.015 377.493 249.993 412 260Z" fill="#F83A16"/>
<path d="M384.68 30.2227C387.173 32.4316 389.594 34.6965 392 37C392.687 37.6239 393.374 38.2478 394.082 38.8906C413.098 56.7437 422.603 82.9409 424.219 108.453C424.859 131.828 416.823 153.738 401 171C386.843 185.346 368.675 195.032 351.035 204.394C327.347 216.919 327.347 216.919 306 233C305.175 233.682 304.35 234.364 303.5 235.066C291.409 245.325 277.594 261.533 276 278C275.224 289.933 276.075 299.388 283.934 308.723C290.105 315.524 296.433 321.47 303.811 326.958C308.479 330.481 312.789 334.322 317.063 338.312C317.694 338.899 318.325 339.486 318.975 340.091C322.284 343.217 325.176 346.42 328 350C328.66 350.33 329.32 350.66 330 351C330.933 352.59 331.858 354.187 332.742 355.805C334.161 358.281 335.731 360.624 337.313 363C340.174 367.469 342.611 372.022 344.875 376.812C345.173 377.434 345.471 378.056 345.779 378.697C347.516 382.471 348.33 385.926 349 390C349.66 390.33 350.32 390.66 351 391C357.084 414.698 354.239 440.965 342 462C335.607 472.557 325.749 479.463 314 483C307.142 484.457 302.132 484.523 296 481C295.34 480.34 294.68 479.68 294 479C294.304 475.1 296.698 472.237 298.813 469.062C306.052 457.66 308.935 445.86 306.305 432.457C300.133 408.678 282.454 392.219 261.871 380.051C249.079 373.077 235.42 367.594 222.063 361.812C188.244 347.157 154.637 329.365 139.43 293.637C137.282 288.175 135.425 282.694 134 277C133.823 276.304 133.647 275.609 133.465 274.892C131.771 267.505 131.614 260.244 131.625 252.688C131.626 252.029 131.627 251.371 131.628 250.693C131.739 225.202 138.912 202.292 151 180C151.316 179.4 151.631 178.8 151.956 178.182C157.002 168.593 163.085 160.303 170 152C170.475 151.423 170.949 150.845 171.438 150.25C181.43 138.115 192.161 126.744 204.52 116.988C206.779 115.177 208.884 113.287 211 111.313C217.739 105.248 225.247 100.105 232.566 94.7739C242.436 87.5794 252.135 80.4331 261 72C262.04 71.0893 262.04 71.0893 263.102 70.1602C270.791 63.1384 277.431 52.9044 278.895 42.4375C279.149 36.559 278.592 31.0208 276.938 25.375C275.461 20.0587 274.939 15.2738 277.313 10.1875C305.011 -12.3574 361.121 10.6821 384.68 30.2227Z" fill="#F83B16"/>
</svg>
